<svg version="1.1" id="Layer_1" xmlns="http://www.w3.org/2000/svg" xmlns:xlink="http://www.w3.org/1999/xlink" x="0px" y="0px"
	 width="100%" viewBox="0 0 550 550" enable-background="new 0 0 550 550" xml:space="preserve">
<path fill="#000000" opacity="1.000000" stroke="none" 
	d="
M1.000000,151.000000 
	C1.000000,100.677979 1.000000,50.855957 1.000000,1.016966 
	C184.280411,1.016966 367.560822,1.016966 550.920654,1.016966 
	C550.920654,184.238754 550.920654,367.477570 550.920654,550.858154 
	C367.666748,550.858154 184.333389,550.858154 1.000000,550.858154 
	C1.000000,417.772369 1.000000,284.636200 1.000000,151.000000 
M41.151428,42.387127 
	C41.100986,43.215897 41.006386,44.044662 41.006351,44.873432 
	C40.999817,198.578308 40.997620,352.283203 41.040596,505.988068 
	C41.040955,507.271057 41.655010,508.553864 42.899586,509.990540 
	C189.288330,509.993744 335.677063,510.000031 482.065796,509.992523 
	C490.720947,509.992065 499.376099,509.880829 508.900299,509.957428 
	C509.266876,508.521149 509.954071,507.084961 509.954529,505.648560 
	C510.003021,352.598114 510.002747,199.547699 509.958710,46.497276 
	C509.958313,45.053589 509.334991,43.610077 508.087921,42.011898 
	C353.885223,42.007992 199.682541,42.003716 45.479847,42.007038 
	C44.318512,42.007065 43.157177,42.110851 41.151428,42.387127 
z"/>
<path fill="#FFFFFF" opacity="1.000000" stroke="none" 
	d="
M509.002502,42.166481 
	C509.334991,43.610077 509.958313,45.053589 509.958710,46.497276 
	C510.002747,199.547699 510.003021,352.598114 509.954529,505.648560 
	C509.954071,507.084961 509.266876,508.521149 508.467194,509.714844 
	C508.034088,509.472290 508.032227,509.123474 508.308044,508.801208 
	C508.647369,506.818329 508.766174,505.157776 508.766449,503.497192 
	C508.775818,441.205383 508.765930,378.913605 508.776062,316.621796 
	C508.790863,225.516541 508.818939,134.411270 508.891357,43.022499 
	C508.961731,42.548149 508.982117,42.357315 509.002502,42.166481 
z"/>
<path fill="#FFFFFF" opacity="1.000000" stroke="none" 
	d="
M41.982536,509.836761 
	C41.655010,508.553864 41.040955,507.271057 41.040596,505.988068 
	C40.997620,352.283203 40.999817,198.578308 41.006351,44.873432 
	C41.006386,44.044662 41.100986,43.215897 41.582092,42.513397 
	C42.012756,42.639664 42.048111,43.112114 42.024910,43.572487 
	C41.998589,197.817001 41.995296,351.601135 41.995453,505.385284 
	C41.995457,506.550842 42.042610,507.716431 42.038082,509.119934 
	C42.008419,509.357880 41.982536,509.836761 41.982536,509.836761 
z"/>
<path fill="#FFF5F5" opacity="1.000000" stroke="none" 
	d="
M42.048111,43.112114 
	C42.048111,43.112114 42.012756,42.639664 42.004299,42.402924 
	C43.157177,42.110851 44.318512,42.007065 45.479847,42.007038 
	C199.682541,42.003716 353.885223,42.007992 508.545227,42.089188 
	C508.982117,42.357315 508.961731,42.548149 508.442322,42.927483 
	C506.112305,43.074871 504.281281,42.997849 502.450287,42.997772 
	C363.144958,42.991795 223.839630,42.988403 84.534309,42.996761 
	C70.372246,42.997608 56.210178,43.071903 42.048111,43.112114 
z"/>
<path fill="#FBDFDF" opacity="1.000000" stroke="none" 
	d="
M42.441063,509.913635 
	C41.982536,509.836761 42.008419,509.357880 42.499763,509.168579 
	C162.041367,508.988892 281.091644,508.990387 400.141907,509.012939 
	C436.105347,509.019775 472.068787,509.084991 508.032227,509.123474 
	C508.032227,509.123474 508.034088,509.472290 508.032654,509.646729 
	C499.376099,509.880829 490.720947,509.992065 482.065796,509.992523 
	C335.677063,510.000031 189.288330,509.993744 42.441063,509.913635 
z"/>
<path fill="#F4595B" opacity="1.000000" stroke="none" 
	d="
M508.308044,508.801208 
	C472.068787,509.084991 436.105347,509.019775 400.141907,509.012939 
	C281.091644,508.990387 162.041367,508.988892 42.529427,508.930664 
	C42.042610,507.716431 41.995457,506.550842 41.995453,505.385284 
	C41.995296,351.601135 41.998589,197.817001 42.024910,43.572487 
	C56.210178,43.071903 70.372246,42.997608 84.534309,42.996761 
	C223.839630,42.988403 363.144958,42.991795 502.450287,42.997772 
	C504.281281,42.997849 506.112305,43.074871 508.392334,43.210995 
	C508.818939,134.411270 508.790863,225.516541 508.776062,316.621796 
	C508.765930,378.913605 508.775818,441.205383 508.766449,503.497192 
	C508.766174,505.157776 508.647369,506.818329 508.308044,508.801208 
M116.500046,53.285805 
	C95.389946,53.285805 74.279839,53.285805 52.927139,53.285805 
	C52.927139,202.115036 52.927139,350.330566 52.927139,498.633881 
	C201.392807,498.633881 349.479156,498.633881 497.735474,498.633881 
	C497.735474,350.143036 497.735474,201.942413 497.735474,53.285492 
	C370.753265,53.285492 244.126663,53.285492 116.500046,53.285805 
z"/>
<path fill="#FEEAEA" opacity="1.000000" stroke="none" 
	d="
M117.000053,53.285648 
	C244.126663,53.285492 370.753265,53.285492 497.735474,53.285492 
	C497.735474,201.942413 497.735474,350.143036 497.735474,498.633881 
	C349.479156,498.633881 201.392807,498.633881 52.927139,498.633881 
	C52.927139,350.330566 52.927139,202.115036 52.927139,53.285805 
	C74.279839,53.285805 95.389946,53.285805 117.000053,53.285648 
M418.500000,55.027958 
	C297.083160,55.027958 175.666336,55.027958 54.310265,55.027958 
	C54.310265,202.934708 54.310265,350.267487 54.310265,497.017883 
	C201.965073,497.017883 349.339203,497.017883 496.694519,497.017883 
	C496.694519,349.380096 496.694519,202.324448 496.694519,55.027958 
	C470.778503,55.027958 445.139252,55.027958 418.500000,55.027958 
z"/>
<path fill="#000000" opacity="1.000000" stroke="none" 
	d="
M419.000000,55.027958 
	C445.139252,55.027958 470.778503,55.027958 496.694519,55.027958 
	C496.694519,202.324448 496.694519,349.380096 496.694519,497.017883 
	C349.339203,497.017883 201.965073,497.017883 54.310265,497.017883 
	C54.310265,350.267487 54.310265,202.934708 54.310265,55.027958 
	C175.666336,55.027958 297.083160,55.027958 419.000000,55.027958 
M258.011536,212.011597 
	C258.011536,212.011597 258.033203,212.083313 258.623474,211.938919 
	C258.853577,211.607956 259.083679,211.277008 259.930420,210.676498 
	C263.106323,209.179535 265.580872,206.752457 264.774750,203.222763 
	C264.383911,201.511276 261.687927,200.326233 259.615082,198.142029 
	C235.679657,198.135742 211.744217,198.129456 187.140640,198.289490 
	C182.386932,203.718277 183.042770,207.121582 189.117310,210.697083 
	C191.664673,212.196457 193.799179,214.397232 196.046127,217.162720 
	C196.079269,259.145416 196.112396,301.128143 195.783661,343.679260 
	C193.013290,345.834045 190.201279,347.937866 187.484741,350.158478 
	C184.987930,352.199524 182.238129,354.249390 185.023056,358.663269 
	C185.338715,359.136169 185.654358,359.609039 185.984863,360.011536 
	C185.984863,360.011536 185.913101,360.016510 186.048965,360.552643 
	C186.356964,360.730438 186.664963,360.908203 186.987488,361.014954 
	C186.987488,361.014954 186.917297,361.033173 187.323120,361.819519 
	C211.575027,361.880188 235.826950,361.948547 260.078888,361.961029 
	C260.745880,361.961365 261.413208,361.361176 262.008606,361.008453 
	C262.008606,361.008453 262.047485,361.077057 262.661865,360.860352 
	C262.737000,360.447388 262.812134,360.034424 263.388428,359.094604 
	C265.625031,356.749237 266.114960,354.721802 263.178772,352.265564 
	C259.841125,349.473511 256.939484,346.160248 254.017853,342.132751 
	C254.042557,324.106018 254.067245,306.079315 254.722595,287.804840 
	C257.925629,285.222137 261.128693,282.639465 264.407928,279.995331 
	C269.995819,291.140015 275.367096,301.690247 280.586395,312.315155 
	C284.526886,320.336853 288.377655,328.406494 292.075104,336.542603 
	C295.532745,344.151154 295.071899,345.516479 288.486267,350.163116 
	C284.311829,353.108582 283.961212,355.170898 287.031006,360.527710 
	C287.348755,360.714722 287.666473,360.901733 287.987732,361.016266 
	C287.987732,361.016266 287.916229,361.028778 288.321686,361.815796 
	C315.244141,361.876831 342.166626,361.944885 369.089111,361.958069 
	C369.753937,361.958405 370.419098,361.350983 371.013245,361.013062 
	C371.013245,361.013062 371.032562,361.082672 371.745514,361.004547 
	C372.109924,360.341156 372.474365,359.677795 373.189758,358.314819 
	C375.013580,354.854614 373.763916,352.885162 370.622742,350.688507 
	C366.728271,347.965027 362.753571,344.757202 360.195374,340.853119 
	C355.598846,333.838470 352.036469,326.146667 348.034424,318.741882 
	C343.193329,309.784698 338.295502,300.857758 333.509583,291.871185 
	C324.975891,275.847443 316.507812,259.788727 307.823700,243.388504 
	C310.143890,241.531464 312.491638,239.769684 314.709747,237.857513 
	C327.047821,227.221176 338.644501,215.617325 353.925323,208.900146 
	C355.390228,208.256210 357.023987,205.354111 356.703278,203.919693 
	C356.241302,201.853088 355.911255,198.334213 351.610229,198.140518 
	C339.883972,198.087448 328.157684,198.014725 316.431519,198.026764 
	C315.672729,198.027542 314.914642,198.681046 313.797974,199.704239 
	C310.545685,203.067322 311.273041,206.137573 314.503967,208.999191 
	C317.558746,211.704758 318.657379,215.121780 315.433380,217.911026 
	C306.431610,225.698853 297.070160,233.071365 287.838837,240.593277 
	C276.969360,249.449966 266.087433,258.291351 254.355103,266.795197 
	C254.266342,250.203552 254.177582,233.611908 254.012497,217.006927 
	C254.012497,217.006927 254.061569,217.066895 254.684799,216.882645 
	C254.819031,216.262466 254.953247,215.642288 255.015671,215.011978 
	C255.015671,215.011978 255.037704,215.081070 255.573929,214.972916 
	C255.741119,214.666595 255.908310,214.360275 256.004547,214.004410 
	C256.004547,214.004410 256.052795,214.076233 256.583832,213.967255 
	C256.747955,213.662460 256.912048,213.357666 257.004761,213.004776 
	C257.004761,213.004776 257.053223,213.075958 257.587250,212.964966 
	C257.751404,212.657516 257.915558,212.350067 258.011536,212.011597 
M152.991455,221.987305 
	C152.991455,221.987305 152.996292,221.908661 152.355087,221.990982 
	C151.880676,222.307159 151.406250,222.623352 150.996292,222.992828 
	C150.996292,222.992828 150.960968,222.917023 150.438583,223.053329 
	C150.261108,223.352783 150.083649,223.652222 149.270874,224.211441 
	C140.561920,229.604797 131.886749,235.053619 123.137039,240.380005 
	C104.503998,251.722931 85.811134,262.967651 67.193092,274.335022 
	C63.172527,276.789795 61.455368,288.205597 64.411263,291.838959 
	C64.890541,292.428070 65.726982,292.737030 66.417953,293.142029 
	C80.236885,301.241577 94.086357,309.289459 107.872726,317.444000 
	C123.888260,326.917023 139.848984,336.482697 156.240555,346.755188 
	C156.829056,345.954987 157.920547,345.160492 157.929733,344.353729 
	C158.045105,334.209778 158.022354,324.063934 157.961716,313.919037 
	C157.957733,313.250275 157.359329,312.585022 157.006638,311.992035 
	C157.006638,311.992035 157.072006,311.945831 156.859802,311.333618 
	C156.240173,311.192291 155.620544,311.050964 155.006180,310.990356 
	C155.006180,310.990356 155.086533,310.981415 154.955292,310.452148 
	C154.653152,310.275085 154.350998,310.098022 154.001617,310.000000 
	C154.001617,310.000000 154.059631,309.928284 153.851868,309.322998 
	C153.238373,309.184570 152.624863,309.046173 152.007446,308.981506 
	C152.007446,308.981506 152.071625,308.945007 151.860153,308.332733 
	C151.240601,308.191650 150.621063,308.050568 150.008102,307.981598 
	C150.008102,307.981598 150.076935,307.959106 149.845261,307.319916 
	C149.186905,307.260651 148.528534,307.201385 147.162445,306.964355 
	C139.001862,301.940552 130.863434,296.880249 122.672035,291.907166 
	C118.040573,289.095367 113.322067,286.426971 108.081398,283.366089 
	C124.721405,272.872467 140.376343,263.000031 156.899216,252.981354 
	C157.266098,252.379013 157.948959,251.778717 157.952820,251.174042 
	C158.018509,240.918671 157.999878,230.662766 157.999878,219.735352 
	C156.394745,220.207886 155.166077,220.569580 153.999649,220.997787 
	C153.999649,220.997787 153.950653,220.920868 153.425812,221.061356 
	C153.254959,221.366791 153.084106,221.672226 152.991455,221.987305 
M394.197296,221.034561 
	C393.799072,222.114288 393.032990,223.203537 393.060608,224.272247 
	C393.291046,233.178040 393.648895,242.080856 394.040039,250.981430 
	C394.067810,251.613144 394.664764,252.219849 395.638489,253.145737 
	C411.144684,262.961273 426.650879,272.776825 443.178345,283.238831 
	C426.623016,293.214447 410.939331,302.664825 394.337799,312.231110 
	C394.337799,323.340881 394.337799,334.450623 394.337799,345.888153 
	C394.601501,345.808716 395.837433,345.436371 397.799927,345.032166 
	C411.579315,336.828522 425.339661,328.592712 439.143158,320.429871 
	C454.488007,311.355591 469.879761,302.360626 485.222687,293.283173 
	C486.268799,292.664246 487.570831,291.810822 487.917725,290.783997 
	C490.398804,283.440643 486.814911,275.312561 479.780579,271.304657 
	C469.483337,265.437714 459.172272,259.584198 449.045044,253.432022 
	C433.661774,244.086868 418.454651,234.452209 403.112396,225.038727 
	C400.581940,223.486130 397.743622,222.435303 394.197296,221.034561 
z"/>
<path fill="#F4585A" opacity="1.000000" stroke="none" 
	d="
M352.031952,198.899506 
	C355.911255,198.334213 356.241302,201.853088 356.703278,203.919693 
	C357.023987,205.354111 355.390228,208.256210 353.925323,208.900146 
	C338.644501,215.617325 327.047821,227.221176 314.709747,237.857513 
	C312.491638,239.769684 310.143890,241.531464 307.823700,243.388504 
	C316.507812,259.788727 324.975891,275.847443 333.509583,291.871185 
	C338.295502,300.857758 343.193329,309.784698 348.034424,318.741882 
	C352.036469,326.146667 355.598846,333.838470 360.195374,340.853119 
	C362.753571,344.757202 366.728271,347.965027 370.622742,350.688507 
	C373.763916,352.885162 375.013580,354.854614 372.709930,358.753418 
	C371.830933,359.822266 371.431732,360.452454 371.032562,361.082672 
	C371.032562,361.082672 371.013245,361.013062 370.585876,360.903687 
	C368.166840,360.862885 366.175201,360.989410 364.183441,360.991211 
	C338.761047,361.014160 313.338623,361.019196 287.916229,361.028778 
	C287.916229,361.028778 287.987732,361.016266 288.020752,360.706604 
	C287.640778,360.263306 287.227783,360.129639 286.814789,359.995972 
	C283.961212,355.170898 284.311829,353.108582 288.486267,350.163116 
	C295.071899,345.516479 295.532745,344.151154 292.075104,336.542603 
	C288.377655,328.406494 284.526886,320.336853 280.586395,312.315155 
	C275.367096,301.690247 269.995819,291.140015 264.407928,279.995331 
	C261.128693,282.639465 257.925629,285.222137 254.005524,287.999451 
	C252.903549,289.404572 252.189453,290.613525 252.183701,291.825836 
	C252.110474,307.264832 252.087601,322.704742 252.216217,338.143066 
	C252.229950,339.790955 253.279373,341.430267 253.848328,343.073547 
	C256.939484,346.160248 259.841125,349.473511 263.178772,352.265564 
	C266.114960,354.721802 265.625031,356.749237 262.798676,359.495361 
	C262.155121,360.289734 262.101288,360.683411 262.047485,361.077057 
	C262.047485,361.077057 262.008606,361.008453 261.598694,360.841003 
	C259.033752,360.780670 256.878876,360.977814 254.723709,360.981171 
	C232.121597,361.016327 209.519440,361.020477 186.917297,361.033203 
	C186.917297,361.033173 186.987488,361.014954 187.059204,360.708923 
	C186.724991,360.274109 186.319046,360.145325 185.913101,360.016541 
	C185.913101,360.016510 185.984863,360.011536 186.077988,359.713745 
	C185.740570,358.954315 185.310043,358.492706 184.879517,358.031067 
	C182.238129,354.249390 184.987930,352.199524 187.484741,350.158478 
	C190.201279,347.937866 193.013290,345.834045 196.260590,343.137390 
	C197.035095,340.299225 197.588745,338.003326 197.592041,335.706635 
	C197.645340,298.442627 197.658279,261.178467 197.563354,223.914597 
	C197.556870,221.368225 196.623627,218.824234 196.121368,216.279144 
	C193.799179,214.397232 191.664673,212.196457 189.117310,210.697083 
	C183.042770,207.121582 182.386932,203.718277 187.783310,198.518311 
	C212.295822,198.799026 236.165680,198.850952 260.035522,198.902863 
	C261.687927,200.326233 264.383911,201.511276 264.774750,203.222763 
	C265.580872,206.752457 263.106323,209.179535 259.240814,210.782623 
	C258.378540,211.286957 258.205872,211.685135 258.033203,212.083313 
	C258.033203,212.083313 258.011536,212.011597 257.674042,211.925476 
	C257.242096,212.251572 257.147675,212.663757 257.053223,213.075958 
	C257.053223,213.075958 257.004761,213.004776 256.666534,212.882599 
	C256.236481,213.199020 256.144653,213.637634 256.052795,214.076233 
	C256.052795,214.076233 256.004547,214.004410 255.687958,213.884750 
	C255.260132,214.203751 255.148926,214.642410 255.037720,215.081070 
	C255.037704,215.081070 255.015671,215.011978 254.662292,215.012695 
	C254.226471,215.697891 254.144012,216.382401 254.061569,217.066895 
	C254.061569,217.066895 254.012497,217.006927 253.640533,217.026703 
	C252.902039,218.306351 252.219666,219.565521 252.216995,220.826141 
	C252.183441,236.602646 252.245529,252.379379 252.314819,268.155914 
	C252.315842,268.389252 252.719940,268.620819 253.148804,269.082336 
	C253.859116,268.413086 254.535019,267.776245 255.210922,267.139404 
	C266.087433,258.291351 276.969360,249.449966 287.838837,240.593277 
	C297.070160,233.071365 306.431610,225.698853 315.433380,217.911026 
	C318.657379,215.121780 317.558746,211.704758 314.503967,208.999191 
	C311.273041,206.137573 310.545685,203.067322 314.434723,199.380341 
	C327.391632,199.004135 339.711792,198.951828 352.031952,198.899506 
z"/>
<path fill="#F4585A" opacity="1.000000" stroke="none" 
	d="
M156.031265,253.127625 
	C140.376343,263.000031 124.721405,272.872467 108.081398,283.366089 
	C113.322067,286.426971 118.040573,289.095367 122.672035,291.907166 
	C130.863434,296.880249 139.001862,301.940552 147.695374,307.340057 
	C148.844528,307.796875 149.460739,307.877991 150.076935,307.959106 
	C150.076935,307.959106 150.008102,307.981598 150.038895,308.327545 
	C150.737000,308.764008 151.404312,308.854492 152.071625,308.945007 
	C152.071625,308.945007 152.007446,308.981506 152.009369,309.361755 
	C152.694061,309.804077 153.376846,309.866180 154.059631,309.928284 
	C154.059631,309.928284 154.001617,310.000000 153.854019,310.307434 
	C154.166458,310.737061 154.626495,310.859253 155.086533,310.981415 
	C155.086533,310.981415 155.006180,310.990356 155.039627,311.330444 
	C155.739380,311.762299 156.405701,311.854065 157.072006,311.945831 
	C157.072006,311.945831 157.006638,311.992035 156.862549,312.407471 
	C156.780121,322.642303 156.880402,332.461792 156.855072,342.280945 
	C156.851868,343.524231 156.190125,344.765778 155.833496,346.008148 
	C139.848984,336.482697 123.888260,326.917023 107.872726,317.444000 
	C94.086357,309.289459 80.236885,301.241577 66.417953,293.142029 
	C65.726982,292.737030 64.890541,292.428070 64.411263,291.838959 
	C61.455368,288.205597 63.172527,276.789795 67.193092,274.335022 
	C85.811134,262.967651 104.503998,251.722931 123.137039,240.380005 
	C131.886749,235.053619 140.561920,229.604797 149.948837,224.117676 
	C150.738190,223.654953 150.849579,223.285980 150.960968,222.917023 
	C150.960968,222.917023 150.996292,222.992828 151.277817,223.209961 
	C152.038330,222.920959 152.517303,222.414810 152.996277,221.908661 
	C152.996292,221.908661 152.991455,221.987305 153.339600,222.049011 
	C153.775375,221.714111 153.863022,221.317490 153.950653,220.920868 
	C153.950653,220.920868 153.999649,220.997787 154.297424,221.272949 
	C155.366028,222.338104 156.759995,223.095551 156.803238,223.923523 
	C157.028183,228.231293 157.021133,232.560669 156.881516,236.875610 
	C156.706116,242.296448 156.324112,247.710587 156.031265,253.127625 
z"/>
<path fill="#F4585A" opacity="1.000000" stroke="none" 
	d="
M395.255676,312.115204 
	C410.939331,302.664825 426.623016,293.214447 443.178345,283.238831 
	C426.650879,272.776825 411.144684,262.961273 395.321838,252.534348 
	C395.019318,241.666168 395.033447,231.409378 395.047577,221.152588 
	C397.743622,222.435303 400.581940,223.486130 403.112396,225.038727 
	C418.454651,234.452209 433.661774,244.086868 449.045044,253.432022 
	C459.172272,259.584198 469.483337,265.437714 479.780579,271.304657 
	C486.814911,275.312561 490.398804,283.440643 487.917725,290.783997 
	C487.570831,291.810822 486.268799,292.664246 485.222687,293.283173 
	C469.879761,302.360626 454.488007,311.355591 439.143158,320.429871 
	C425.339661,328.592712 411.579315,336.828522 397.017731,344.968872 
	C395.825592,344.115051 395.059601,343.324493 395.059723,342.534027 
	C395.061310,332.394409 395.172363,322.254822 395.255676,312.115204 
z"/>
<path fill="#FFFAFA" opacity="1.000000" stroke="none" 
	d="
M196.083755,216.720932 
	C196.623627,218.824234 197.556870,221.368225 197.563354,223.914597 
	C197.658279,261.178467 197.645340,298.442627 197.592041,335.706635 
	C197.588745,338.003326 197.035095,340.299225 196.441513,342.853149 
	C196.112396,301.128143 196.079269,259.145416 196.083755,216.720932 
z"/>
<path fill="#FDDFDF" opacity="1.000000" stroke="none" 
	d="
M253.933090,342.603149 
	C253.279373,341.430267 252.229950,339.790955 252.216217,338.143066 
	C252.087601,322.704742 252.110474,307.264832 252.183701,291.825836 
	C252.189453,290.613525 252.903549,289.404572 253.690186,288.123322 
	C254.067245,306.079315 254.042557,324.106018 253.933090,342.603149 
z"/>
<path fill="#FDE0E0" opacity="1.000000" stroke="none" 
	d="
M254.783020,266.967285 
	C254.535019,267.776245 253.859116,268.413086 253.148804,269.082336 
	C252.719940,268.620819 252.315842,268.389252 252.314819,268.155914 
	C252.245529,252.379379 252.183441,236.602646 252.216995,220.826141 
	C252.219666,219.565521 252.902039,218.306351 253.678711,217.033386 
	C254.177582,233.611908 254.266342,250.203552 254.783020,266.967285 
z"/>
<path fill="#FFFDFE" opacity="1.000000" stroke="none" 
	d="
M288.118958,361.422302 
	C313.338623,361.019196 338.761047,361.014160 364.183441,360.991211 
	C366.175201,360.989410 368.166840,360.862885 370.621338,360.910675 
	C370.419098,361.350983 369.753937,361.958405 369.089111,361.958069 
	C342.166626,361.944885 315.244141,361.876831 288.118958,361.422302 
z"/>
<path fill="#FFFCFC" opacity="1.000000" stroke="none" 
	d="
M187.120209,361.426361 
	C209.519440,361.020477 232.121597,361.016327 254.723709,360.981171 
	C256.878876,360.977814 259.033752,360.780670 261.634583,360.857269 
	C261.413208,361.361176 260.745880,361.961365 260.078888,361.961029 
	C235.826950,361.948547 211.575027,361.880188 187.120209,361.426361 
z"/>
<path fill="#FBC3C3" opacity="1.000000" stroke="none" 
	d="
M259.825317,198.522446 
	C236.165680,198.850952 212.295822,198.799026 188.117386,198.435135 
	C211.744217,198.129456 235.679657,198.135742 259.825317,198.522446 
z"/>
<path fill="#FBC3C3" opacity="1.000000" stroke="none" 
	d="
M394.622437,221.093567 
	C395.033447,231.409378 395.019318,241.666168 395.001099,252.380585 
	C394.664764,252.219849 394.067810,251.613144 394.040039,250.981430 
	C393.648895,242.080856 393.291046,233.178040 393.060608,224.272247 
	C393.032990,223.203537 393.799072,222.114288 394.622437,221.093567 
z"/>
<path fill="#FBC1C3" opacity="1.000000" stroke="none" 
	d="
M394.796753,312.173157 
	C395.172363,322.254822 395.061310,332.394409 395.059723,342.534027 
	C395.059601,343.324493 395.825592,344.115051 396.654449,344.984802 
	C395.837433,345.436371 394.601501,345.808716 394.337799,345.888153 
	C394.337799,334.450623 394.337799,323.340881 394.796753,312.173157 
z"/>
<path fill="#FBC5C5" opacity="1.000000" stroke="none" 
	d="
M351.821106,198.520020 
	C339.711792,198.951828 327.391632,199.004135 314.613831,199.043671 
	C314.914642,198.681046 315.672729,198.027542 316.431519,198.026764 
	C328.157684,198.014725 339.883972,198.087448 351.821106,198.520020 
z"/>
<path fill="#FFFCFC" opacity="1.000000" stroke="none" 
	d="
M156.465240,253.054489 
	C156.324112,247.710587 156.706116,242.296448 156.881516,236.875610 
	C157.021133,232.560669 157.028183,228.231293 156.803238,223.923523 
	C156.759995,223.095551 155.366028,222.338104 154.266296,221.239716 
	C155.166077,220.569580 156.394745,220.207886 157.999878,219.735352 
	C157.999878,230.662766 158.018509,240.918671 157.952820,251.174042 
	C157.948959,251.778717 157.266098,252.379013 156.465240,253.054489 
z"/>
<path fill="#FFFAFA" opacity="1.000000" stroke="none" 
	d="
M156.037018,346.381653 
	C156.190125,344.765778 156.851868,343.524231 156.855072,342.280945 
	C156.880402,332.461792 156.780121,322.642303 156.877945,312.370544 
	C157.359329,312.585022 157.957733,313.250275 157.961716,313.919037 
	C158.022354,324.063934 158.045105,334.209778 157.929733,344.353729 
	C157.920547,345.160492 156.829056,345.954987 156.037018,346.381653 
z"/>
<path fill="#FFFDFE" opacity="1.000000" stroke="none" 
	d="
M371.389038,361.043610 
	C371.431732,360.452454 371.830933,359.822266 372.534454,359.103241 
	C372.474365,359.677795 372.109924,360.341156 371.389038,361.043610 
z"/>
<path fill="#FFFAFA" opacity="1.000000" stroke="none" 
	d="
M149.961090,307.639496 
	C149.460739,307.877991 148.844528,307.796875 148.049255,307.428955 
	C148.528534,307.201385 149.186905,307.260651 149.961090,307.639496 
z"/>
<path fill="#FFFCFC" opacity="1.000000" stroke="none" 
	d="
M184.951294,358.347168 
	C185.310043,358.492706 185.740570,358.954315 186.070557,359.748962 
	C185.654358,359.609039 185.338715,359.136169 184.951294,358.347168 
z"/>
<path fill="#FFFAFA" opacity="1.000000" stroke="none" 
	d="
M156.965912,311.639709 
	C156.405701,311.854065 155.739380,311.762299 155.036987,311.290100 
	C155.620544,311.050964 156.240173,311.192291 156.965912,311.639709 
z"/>
<path fill="#FFFAFA" opacity="1.000000" stroke="none" 
	d="
M153.955750,309.625641 
	C153.376846,309.866180 152.694061,309.804077 152.011322,309.324890 
	C152.624863,309.046173 153.238373,309.184570 153.955750,309.625641 
z"/>
<path fill="#FFFAFA" opacity="1.000000" stroke="none" 
	d="
M151.965881,308.638855 
	C151.404312,308.854492 150.737000,308.764008 150.035599,308.291504 
	C150.621063,308.050568 151.240601,308.191650 151.965881,308.638855 
z"/>
<path fill="#FFFCFC" opacity="1.000000" stroke="none" 
	d="
M152.675690,221.949814 
	C152.517303,222.414810 152.038330,222.920959 151.245590,223.183319 
	C151.406250,222.623352 151.880676,222.307159 152.675690,221.949814 
z"/>
<path fill="#FDE0E0" opacity="1.000000" stroke="none" 
	d="
M254.373184,216.974762 
	C254.144012,216.382401 254.226471,215.697891 254.698181,215.017761 
	C254.953247,215.642288 254.819031,216.262466 254.373184,216.974762 
z"/>
<path fill="#FFFAFA" opacity="1.000000" stroke="none" 
	d="
M155.020905,310.716797 
	C154.626495,310.859253 154.166458,310.737061 153.877640,310.267944 
	C154.350998,310.098022 154.653152,310.275085 155.020905,310.716797 
z"/>
<path fill="#FDE0E0" opacity="1.000000" stroke="none" 
	d="
M256.318298,214.021744 
	C256.144653,213.637634 256.236481,213.199020 256.702209,212.906647 
	C256.912048,213.357666 256.747955,213.662460 256.318298,214.021744 
z"/>
<path fill="#FFFCFC" opacity="1.000000" stroke="none" 
	d="
M150.699768,222.985168 
	C150.849579,223.285980 150.738190,223.654953 150.266479,223.987793 
	C150.083649,223.652222 150.261108,223.352783 150.699768,222.985168 
z"/>
<path fill="#FDE0E0" opacity="1.000000" stroke="none" 
	d="
M258.328339,212.011108 
	C258.205872,211.685135 258.378540,211.286957 258.932495,210.917404 
	C259.083679,211.277008 258.853577,211.607956 258.328339,212.011108 
z"/>
<path fill="#FDE0E0" opacity="1.000000" stroke="none" 
	d="
M257.320251,213.020462 
	C257.147675,212.663757 257.242096,212.251572 257.708130,211.941010 
	C257.915558,212.350067 257.751404,212.657516 257.320251,213.020462 
z"/>
<path fill="#FFFCFC" opacity="1.000000" stroke="none" 
	d="
M185.981033,360.284607 
	C186.319046,360.145325 186.724991,360.274109 187.051941,360.744446 
	C186.664963,360.908203 186.356964,360.730438 185.981033,360.284607 
z"/>
<path fill="#FFFCFC" opacity="1.000000" stroke="none" 
	d="
M262.354675,360.968689 
	C262.101288,360.683411 262.155121,360.289734 262.548096,359.758789 
	C262.812134,360.034424 262.737000,360.447388 262.354675,360.968689 
z"/>
<path fill="#FFFDFE" opacity="1.000000" stroke="none" 
	d="
M286.922913,360.261841 
	C287.227783,360.129639 287.640778,360.263306 288.018982,360.742859 
	C287.666473,360.901733 287.348755,360.714722 286.922913,360.261841 
z"/>
<path fill="#FFFCFC" opacity="1.000000" stroke="none" 
	d="
M153.688232,220.991119 
	C153.863022,221.317490 153.775375,221.714111 153.300507,222.044189 
	C153.084106,221.672226 153.254959,221.366791 153.688232,220.991119 
z"/>
<path fill="#FDE0E0" opacity="1.000000" stroke="none" 
	d="
M255.305817,215.026993 
	C255.148926,214.642410 255.260132,214.203751 255.723419,213.909515 
	C255.908310,214.360275 255.741119,214.666595 255.305817,215.026993 
z"/>
</svg>